<?xml version="1.0" encoding="iso-8859-1"?>
<!DOCTYPE svg PUBLIC "-//W3C//DTD SVG 1.1//EN" "http://www.w3.org/Graphics/SVG/1.1/DTD/svg11.dtd">
<svg 
 version="1.1" xmlns="http://www.w3.org/2000/svg" xmlns:xlink="http://www.w3.org/1999/xlink" x="0px" y="0px" width="512px"
	 height="512px" viewBox="0 0 512 512" enable-background="new 0 0 512 512" xml:space="preserve"
><g id="1b1c9b208ed950244c86edd4d2039674"><g></g><path display="inline" fill-rule="evenodd" clip-rule="evenodd" d="M501.28,286.66v81.76c0,78.894-64.187,143.08-143.08,143.08
		H153.8c-78.894,0-143.08-64.187-143.08-143.08v-81.76c0-22.484,18.396-40.88,40.88-40.88c22.484,0,40.88,18.396,40.88,40.88v81.76
		c0,33.727,27.595,61.32,61.32,61.32h204.4c33.726,0,61.319-27.594,61.319-61.32v-81.76c0-22.484,18.396-40.88,40.881-40.88
		C482.884,245.78,501.28,264.176,501.28,286.66z M227.093,247.533c15.898,15.901,41.914,15.901,57.814,0l126.146-126.145
		c15.9-15.901,10.512-28.908-11.973-28.908h-51.1v-51.1c0-22.484-18.396-40.88-40.881-40.88h-102.2
		c-22.483,0-40.88,18.396-40.88,40.88v51.1h-51.1c-22.484,0-27.872,13.007-11.973,28.908L227.093,247.533z"></path></g></svg>